<svg width="21" height="17" viewBox="0 0 21 17" fill="none" xmlns="http://www.w3.org/2000/svg">
<path d="M19.5194 7.5659H2.97215L9.30838 1.53077C9.64016 1.21475 9.65302 0.689703 9.337 0.35792C9.02139 0.0265518 8.49634 0.0132803 8.16414 0.329304L0.927956 7.22209C0.614836 7.53563 0.441895 7.95202 0.441895 8.39536C0.441895 8.83829 0.614836 9.25509 0.942472 9.58232L8.16456 16.461C8.32506 16.614 8.53076 16.6899 8.73647 16.6899C8.95544 16.6899 9.17442 16.6037 9.33741 16.4324C9.65343 16.1006 9.64058 15.576 9.30879 15.2599L2.94603 9.22482H19.5194C19.9773 9.22482 20.3489 8.85322 20.3489 8.39536C20.3489 7.9375 19.9773 7.5659 19.5194 7.5659Z" fill="white"/>
</svg>
