<svg width="98" height="98" viewBox="0 0 98 98" fill="none" xmlns="http://www.w3.org/2000/svg">
<rect width="98" height="98" fill="#A82420"/>
<path d="M68.7952 36.6852C68.1576 36.6852 67.6405 37.2023 67.6405 37.8398V66.6907H31.3093V30.3596H59.5583C60.1961 30.3596 60.713 29.8425 60.713 29.2049C60.713 28.5674 60.1961 28.0503 59.5583 28.0503H30.1547C29.5171 28.0503 29 28.5674 29 29.2049V67.8453C29 68.4829 29.5171 69 30.1547 69H68.7952C69.4328 69 69.9499 68.4829 69.9499 67.8453V37.8398C69.9499 37.2023 69.4328 36.6852 68.7952 36.6852Z" fill="white"/>
<path d="M76.6617 21.3383C76.2108 20.8874 75.4798 20.887 75.0289 21.3383L44.4755 51.8915L36.8946 44.3106C36.4437 43.8595 35.7125 43.8595 35.2618 44.3106C34.8109 44.7615 34.8109 45.4926 35.2618 45.9433L43.6592 54.3407C43.8845 54.5662 44.1801 54.679 44.4757 54.679C44.7713 54.679 45.0667 54.5662 45.2922 54.3407L76.6617 22.9712C77.1128 22.5203 77.1128 21.7892 76.6617 21.3383Z" fill="white"/>
</svg>
