<svg width="100" height="100" viewBox="0 0 100 100" fill="none" xmlns="http://www.w3.org/2000/svg">
<g clip-path="url(#clip0)">
<path d="M99.0723 13.5426C98.5035 13.2621 97.8248 13.3283 97.3209 13.7135L70.2262 34.431C68.891 35.4617 68.5348 37.3264 69.3955 38.7767L65.1203 39.9422L58.8816 37.2859C58.7729 37.2392 58.6594 37.2043 58.5432 37.1818C52.558 36.0383 49.4549 37.1412 47.8516 38.3699H30.8184C31.4023 36.9717 30.973 35.3555 29.7723 34.431L2.6791 13.7133C2.17559 13.3277 1.49688 13.2613 0.92832 13.5422C0.35957 13.823 -0.000195223 14.4023 8.92144e-08 15.0365V55.0365C-0.000195223 55.6348 0.320313 56.1871 0.839844 56.4834L11.1557 62.3769C11.657 62.6644 12.225 62.8154 12.8027 62.8148C13.6506 62.8125 14.4658 62.4883 15.0836 61.9078L17.017 63.4525C15.8922 64.8889 15.6465 66.8269 16.3771 68.4986C17.108 70.1703 18.6975 71.306 20.5158 71.4556C20.6574 71.4687 20.7975 71.4736 20.9373 71.4736C21.1936 71.4713 21.4494 71.4492 21.7023 71.4074C21.8064 72.597 22.276 73.7254 23.0467 74.6377L23.0484 74.6394C24.0459 75.823 25.4752 76.5586 27.0182 76.682C27.1826 76.6967 27.3469 76.7031 27.5113 76.7031C27.5365 76.7031 27.5607 76.6971 27.5857 76.6967C27.6322 77.7801 28.0357 78.8176 28.7336 79.6474C29.6828 80.7664 31.0766 81.4107 32.5437 81.4086C33.127 81.4076 33.7053 81.3027 34.2516 81.099C34.8078 83.0867 36.5455 84.5162 38.6033 84.6785C38.7449 84.6916 38.885 84.6965 39.0248 84.6965C40.1715 84.7033 41.2836 84.3031 42.1629 83.567L44.7766 81.5476L50.9309 85.6601C51.8834 86.2929 53.0018 86.6304 54.1453 86.6301C54.5377 86.6302 54.9291 86.5916 55.3139 86.5144C57.8211 86.0152 59.7064 83.9344 59.9572 81.3904C61.6254 81.8994 63.4346 81.6234 64.875 80.64C66.3154 79.6566 67.2314 78.0722 67.365 76.3332C69.2955 76.9711 71.4189 76.5519 72.9621 75.2281C74.5053 73.9043 75.2426 71.8693 74.9059 69.8644C76.576 69.6734 78.0783 68.7601 79.0168 67.3656C79.9471 65.9635 80.2281 64.2281 79.7875 62.6041L83.074 59.3187L84.4156 61.3305C85.3885 62.7875 87.3223 63.2443 88.8443 62.3769L99.1602 56.4834C99.6797 56.1869 100 55.6346 100 55.0365V15.0365C100 14.4027 99.6404 13.8236 99.0723 13.5426ZM3.3334 54.0697V18.409L21.941 32.6375L6.67852 55.9808L3.3334 54.0697ZM12.8092 59.4832L9.57734 57.6369L24.5955 34.6676L27.7475 37.0775L12.8092 59.4832ZM21.9791 67.7547C21.6525 68.0398 21.2225 68.1771 20.791 68.134C20.1473 68.0797 19.5961 67.651 19.3848 67.0404C19.1734 66.4299 19.342 65.7523 19.8145 65.3117L23.9828 62.089C24.276 61.8392 24.649 61.7023 25.0342 61.7033C25.0797 61.7033 25.1252 61.7049 25.1709 61.7082C25.8148 61.7627 26.3664 62.1918 26.5775 62.8025C26.7889 63.4135 26.6201 64.0914 26.1475 64.532L21.9791 67.7547ZM27.2934 73.3601C26.2986 73.2779 25.4479 72.6121 25.1291 71.6662C24.8104 70.7203 25.0846 69.6754 25.827 69.008L31.076 64.9488C31.8477 64.2949 32.9371 64.1705 33.8365 64.6332C34.7357 65.0961 35.2678 66.0551 35.1842 67.0631C35.1367 67.6801 34.8586 68.2566 34.4053 68.6781L32.977 69.7926L29.1148 72.7775C28.6103 73.2082 27.9541 73.4181 27.2934 73.3601ZM35.8057 75.9431L35.802 75.9471L33.5775 77.683C33.2477 77.9631 32.8201 78.1004 32.3889 78.0646C31.9576 78.0289 31.5584 77.823 31.2793 77.4926C30.9979 77.1637 30.8607 76.7355 30.8984 76.3045C30.927 75.8949 31.1131 75.5121 31.4176 75.2367L35.3137 72.1959L36.4631 71.3076C36.4758 71.2969 36.4844 71.2832 36.4971 71.2722L37.674 70.3539C37.9666 70.1037 38.3389 69.9662 38.7238 69.9666C38.7701 69.9664 38.8162 69.9685 38.8621 69.973C39.5072 70.0275 40.0592 70.4576 40.2695 71.0699C40.4799 71.682 40.309 72.3607 39.8338 72.8002L35.9352 75.843L35.8057 75.9431ZM44.235 77.7547L40.0666 80.9773C39.7412 81.2646 39.3102 81.4021 38.8785 81.3566C38.2352 81.3023 37.6842 80.874 37.4729 80.264C37.2613 79.6541 37.4291 78.9767 37.9008 78.5359L37.977 78.4765L42.0703 75.3119C42.7477 74.74 43.7574 74.8133 44.3453 75.4765C44.933 76.1398 44.8842 77.1512 44.235 77.7547ZM76.2418 65.5199C75.4791 66.649 73.9562 66.9664 72.8059 66.2361L72.7928 66.2279L61.8471 58.6629C61.3574 58.3224 60.7234 58.2697 60.1842 58.5246C59.6451 58.7793 59.2832 59.3029 59.2354 59.8973C59.1875 60.4916 59.4609 61.0662 59.9523 61.4039L70.5443 68.7262L70.5496 68.7314C71.3895 69.2888 71.8102 70.2978 71.6146 71.2867C71.4191 72.2756 70.6465 73.0488 69.6576 73.2447C69.017 73.3779 68.3498 73.2502 67.8037 72.8898L56.85 65.3312C56.0922 64.8099 55.0555 65.0008 54.533 65.7576C54.0106 66.5144 54.1994 67.5515 54.9555 68.0754L62.9557 73.5949L62.9584 73.5978C64.1137 74.4092 64.4301 75.984 63.6777 77.1785C62.9266 78.3172 61.3994 78.64 60.2516 77.9027L57.3037 75.8107L57.3023 75.8097H57.3019L54.2979 73.6775C53.8123 73.3326 53.1797 73.273 52.6383 73.5213C52.0969 73.7693 51.7289 74.2875 51.673 74.8803C51.6172 75.473 51.8818 76.0508 52.3674 76.3957L55.4576 78.5881C55.6066 78.7086 55.748 78.8379 55.8814 78.9754C56.8242 79.8693 56.9275 81.3353 56.1195 82.3525C55.3115 83.3697 53.86 83.6008 52.776 82.8847L47.2863 79.216C48.2182 77.7771 48.3363 75.9578 47.5986 74.4105C46.8609 72.8633 45.3732 71.8096 43.6688 71.6275C43.7072 69.033 41.7236 66.8547 39.1367 66.6512C38.9229 66.6385 38.7082 66.6402 38.4945 66.6564C38.4412 64.6049 37.3057 62.7349 35.5102 61.7414C33.7146 60.7478 31.5271 60.7789 29.7605 61.8232C29.2617 60.2556 28.0176 59.0375 26.4396 58.5721C24.8619 58.1064 23.1559 58.4539 21.8857 59.4996L19.6096 61.2586L17.0139 59.1846L28.6689 41.7033H43.2982C42.033 42.8139 41.4426 44.5064 41.7426 46.1629C42.0912 48.1734 43.6855 49.7363 45.7025 50.0447C48.7855 50.481 51.9289 50.0281 54.7635 48.7394L59.0131 51.443C59.1082 51.4976 59.2088 51.5428 59.3129 51.5777L75.5609 62.042C75.8818 62.2627 76.1516 62.5496 76.352 62.8834C76.3602 62.9029 76.3699 62.9209 76.3797 62.9404C76.8109 63.7603 76.7578 64.7506 76.2418 65.5199ZM77.9475 59.731C77.7705 59.5597 77.583 59.3998 77.3861 59.2521L60.9033 48.6353C60.8275 48.5986 60.7488 48.5681 60.6682 48.5439L55.765 45.4256C55.2426 45.0933 54.5789 45.0775 54.0414 45.3849C51.6447 46.6289 48.9242 47.1078 46.2469 46.757C45.6223 46.6832 45.1229 46.2031 45.0246 45.5818C44.9016 44.9312 45.2188 44.2767 45.8059 43.9705C47.0541 43.3203 48.227 42.5349 49.3035 41.6285C49.4189 41.5312 49.5137 41.4117 49.5818 41.2769C49.6346 41.2111 49.6934 41.1508 49.7576 41.0963C50.2459 40.6779 52.2594 39.4101 57.7426 40.424L64.3475 43.2365C64.6916 43.3861 65.0768 43.4125 65.4379 43.3113L71.3283 41.7051L81.1885 56.491L77.9475 59.731ZM87.1908 59.4832L72.251 37.0793L75.4047 34.6676L90.4227 57.6369L87.1908 59.4832ZM96.6666 54.0697L93.3215 55.9806L78.0592 32.6377L96.6666 18.4088V54.0697Z" fill="#A82420"/>
</g>
<defs>
<clipPath id="clip0">
<rect width="100" height="100" fill="white"/>
</clipPath>
</defs>
</svg>
