<svg width="100" height="100" viewBox="0 0 100 100" fill="none" xmlns="http://www.w3.org/2000/svg">
<path d="M88.3333 0H11.6666V100H88.3333V0ZM85 96.6667H15V3.33333H85V96.6667Z" fill="#A82420"/>
<path d="M31.6667 28.3333H21.6667V23.3333H31.6667V20H18.3334V31.6667H28.3334V36.6667H18.3334V40H31.6667V28.3333Z" fill="#A82420"/>
<path d="M38.3333 33.3333H48.3333V40H51.6667V24.3099L47.3568 20H39.3099L35 24.3099V40H38.3333V33.3333ZM40.6901 23.3333H45.9766L48.3333 25.6901V30H38.3333V25.6901L40.6901 23.3333Z" fill="#A82420"/>
<path d="M55 20V40H66.6667V36.6667H58.3333V20H55Z" fill="#A82420"/>
<path d="M81.6667 36.6667H73.3333V31.6667H81.6667V28.3333H73.3333V23.3333H81.6667V20H70V40H81.6667V36.6667Z" fill="#A82420"/>
<path d="M18.3334 93.3333H81.6667V43.3333H18.3334V93.3333ZM21.6667 46.6667H78.3334V90H21.6667V46.6667Z" fill="#A82420"/>
<path d="M66.6666 60H53.3333V68.3333H46.6666V61.6667H43.3333V53.3333H30V61.6667H26.6666V85H73.3333V68.3333H66.6666V60ZM56.6666 63.3333H63.3333V68.3333H56.6666V63.3333ZM33.3333 56.6667H40V61.6667H33.3333V56.6667ZM43.3333 81.6667H30V65H43.3333V81.6667ZM70 81.6667H46.6666V71.6667H70V81.6667Z" fill="#A82420"/>
<path d="M78.3333 13.3333H81.6666V6.66666H71.6666V9.99999H78.3333V13.3333Z" fill="#A82420"/>
<path d="M25 6.66666H28.3333V9.99999H25V6.66666Z" fill="#A82420"/>
<path d="M43.3334 10C43.3334 13.6817 46.3184 16.6667 50 16.6667C53.6817 16.6667 56.6667 13.6817 56.6667 10C56.6667 6.31837 53.6817 3.33334 50 3.33334C46.3184 3.33334 43.3334 6.31837 43.3334 10ZM50 6.66668C51.8409 6.66668 53.3334 8.15919 53.3334 10C53.3334 11.8408 51.8409 13.3333 50 13.3333C48.1592 13.3333 46.6667 11.8408 46.6667 10C46.6667 8.15919 48.1592 6.66668 50 6.66668Z" fill="#A82420"/>
<path d="M68.3334 53.3333H71.6667V56.6667H75V50H68.3334V53.3333Z" fill="#A82420"/>
<path d="M65 6.66666H68.3333V9.99999H65V6.66666Z" fill="#A82420"/>
</svg>
