<svg width="100" height="100" viewBox="0 0 100 100" fill="none" xmlns="http://www.w3.org/2000/svg">
<path d="M92.1875 84.375H87.5V40.625H92.1875V31.25H70.3125V3.125H29.6875V31.25H9.375V40.625H12.5V84.375H7.8125V96.875H92.1875V84.375ZM89.0625 34.375V37.5H70.3125V34.375H89.0625ZM12.5 34.375H29.6875V37.5H12.5V34.375ZM15.625 40.625H32.8125V34.375H39.0625V31.25H32.8125V20.3125H39.0625V17.1875H32.8125V6.25H67.1875V9.375H56.25V12.5H67.1875V26.5625H60.9375V29.6875H67.1875V40.625H84.375V84.375H81.25V64.0625C81.2438 58.6772 79.1017 53.5142 75.2938 49.7062C71.4858 45.8983 66.3228 43.7562 60.9375 43.75H39.0625C33.6772 43.7562 28.5142 45.8983 24.7062 49.7062C20.8983 53.5142 18.7562 58.6772 18.75 64.0625V84.375H15.625V40.625ZM39.0625 75C39.4672 72.4197 40.1423 69.8891 41.0766 67.45C41.5453 68.1469 42.0234 68.8906 42.4016 69.5391C42.5508 69.7844 42.7629 69.9854 43.0159 70.1211C43.269 70.2568 43.5537 70.3224 43.8406 70.3109C44.1289 70.2938 44.4068 70.1971 44.6434 70.0317C44.8801 69.8662 45.0662 69.6383 45.1813 69.3734C46.5655 66.4605 48.1311 63.6373 49.8688 60.9203C51.2938 63.6547 53.5875 68.1281 54.8172 70.9359C54.9322 71.2008 55.1184 71.4287 55.355 71.5942C55.5917 71.7596 55.8695 71.8563 56.1578 71.8734C56.4449 71.8857 56.7299 71.8205 56.9831 71.6847C57.2363 71.5489 57.4483 71.3475 57.5969 71.1016C58.0109 70.3938 58.5453 69.5719 59.0516 68.8203C59.9559 70.7858 60.5903 72.8645 60.9375 75C60.9375 75.8288 60.6083 76.6237 60.0222 77.2097C59.4362 77.7958 58.6413 78.125 57.8125 78.125H54.4C54.5851 77.6246 54.6823 77.096 54.6875 76.5625C54.6875 74.5656 52.3094 70.9047 51.2859 69.425C51.1345 69.2279 50.9397 69.0683 50.7168 68.9585C50.4938 68.8486 50.2486 68.7915 50 68.7915C49.7514 68.7915 49.5062 68.8486 49.2832 68.9585C49.0603 69.0683 48.8655 69.2279 48.7141 69.425C47.6906 70.9047 45.3125 74.5656 45.3125 76.5625C45.3177 77.096 45.4149 77.6246 45.6 78.125H42.1875C41.3587 78.125 40.5638 77.7958 39.9778 77.2097C39.3917 76.6237 39.0625 75.8288 39.0625 75ZM48.4375 76.5625C48.7763 75.3682 49.3038 74.2357 50 73.2078C50.6961 74.2357 51.2236 75.3682 51.5625 76.5625C51.5625 76.9769 51.3979 77.3743 51.1049 77.6674C50.8118 77.9604 50.4144 78.125 50 78.125C49.5856 78.125 49.1882 77.9604 48.8951 77.6674C48.6021 77.3743 48.4375 76.9769 48.4375 76.5625ZM67.1875 81.25V84.375H32.8125V81.25H67.1875ZM68.75 78.125H63.1937C63.7561 77.1791 64.056 76.1004 64.0625 75C64.0625 72.2094 61.3406 66.1562 60.7938 64.9719C60.6798 64.7243 60.503 64.5108 60.281 64.3526C60.0589 64.1945 59.7994 64.0971 59.5281 64.0703C59.2564 64.0413 58.9818 64.0851 58.7325 64.1971C58.4832 64.3091 58.2682 64.4854 58.1094 64.7078C58.0594 64.7781 57.3109 65.8125 56.4688 67.0625C54.3906 62.7328 51.5266 57.3531 51.3797 57.0781C51.2525 56.8387 51.0651 56.6366 50.8361 56.4915C50.6071 56.3464 50.3443 56.2634 50.0735 56.2506C49.8027 56.2379 49.5333 56.2958 49.2916 56.4187C49.05 56.5416 48.8445 56.7252 48.6953 56.9516C48.5484 57.1766 45.6703 61.5484 43.5688 65.5547C42.7125 64.2813 41.9422 63.2109 41.8906 63.1453C41.7256 62.916 41.5008 62.7365 41.2406 62.6263C40.9805 62.5161 40.6951 62.4794 40.4156 62.5203C40.1365 62.5588 39.8729 62.672 39.6528 62.8481C39.4328 63.0241 39.2644 63.2564 39.1656 63.5203C38.8328 64.3969 35.9375 72.2094 35.9375 75C35.944 76.1004 36.2439 77.1791 36.8062 78.125H31.25C30.8356 78.125 30.4382 78.2896 30.1451 78.5826C29.8521 78.8757 29.6875 79.2731 29.6875 79.6875V84.375H21.875V64.0625C21.8804 59.5057 23.6929 55.1372 26.915 51.915C30.1372 48.6929 34.5057 46.8804 39.0625 46.875H60.9375C65.4943 46.8804 69.8628 48.6929 73.085 51.915C76.3071 55.1372 78.1196 59.5057 78.125 64.0625V84.375H70.3125V79.6875C70.3125 79.2731 70.1479 78.8757 69.8549 78.5826C69.5618 78.2896 69.1644 78.125 68.75 78.125ZM89.0625 93.75H10.9375V87.5H89.0625V93.75Z" fill="#A82420"/>
<path d="M45.3125 31.25H42.1875V34.375H45.3125V31.25Z" fill="#A82420"/>
<path d="M62.5 35.9375H59.375V39.0625H62.5V35.9375Z" fill="#A82420"/>
<path d="M53.125 37.5H46.875V40.625H53.125V37.5Z" fill="#A82420"/>
<path d="M48.4375 23.4375H39.0625V26.5625H48.4375V23.4375Z" fill="#A82420"/>
<path d="M64.0625 17.1875H51.5625V20.3125H64.0625V17.1875Z" fill="#A82420"/>
<path d="M48.4375 17.1875H45.3125V20.3125H48.4375V17.1875Z" fill="#A82420"/>
<path d="M43.75 9.375H37.5V12.5H43.75V9.375Z" fill="#A82420"/>
</svg>
