<svg width="80" height="80" viewBox="0 0 80 80" fill="none" xmlns="http://www.w3.org/2000/svg">
<g clip-path="url(#clip0)">
<path d="M57.3654 39.6854C57.3614 41.4397 56.9507 43.1687 56.1654 44.7374C55.2014 46.6774 54.6991 48.8147 54.6987 50.9814V73.3334C54.6987 75.542 52.9074 77.3334 50.6987 77.3334H16.0321C13.8234 77.3334 12.0321 75.542 12.0321 73.3334V50.9814C12.0317 48.8147 11.5294 46.6774 10.5654 44.7374C9.78006 43.1687 9.3694 41.4397 9.3654 39.6854V12C9.3654 9.79137 11.1567 8.00004 13.3654 8.00004H14.6987V5.33337H13.3654C9.6854 5.33804 6.7034 8.32004 6.69873 12V39.6854C6.7014 41.852 7.20506 43.9897 8.17206 45.9294C8.95506 47.4994 9.3634 49.2284 9.3654 50.9814V73.3334C9.37006 77.0134 12.3521 79.9954 16.0321 80H50.6987C54.3787 79.9954 57.3607 77.0134 57.3654 73.3334V50.9814C57.3694 49.227 57.7801 47.498 58.5654 45.9294C59.5294 43.9894 60.0317 41.852 60.0321 39.6854V37.3334H57.3654V39.6854Z" fill="#A82420"/>
<path d="M34.6988 44H32.0321C29.8234 44 28.0321 45.7913 28.0321 48C28.0321 50.2087 29.8234 52 32.0321 52H34.6988C36.9074 52 38.6988 50.2087 38.6988 48C38.6988 45.7913 36.9074 44 34.6988 44ZM34.6988 49.3333H32.0321C31.2954 49.3333 30.6988 48.7367 30.6988 48C30.6988 47.2633 31.2954 46.6667 32.0321 46.6667H34.6988C35.4354 46.6667 36.0321 47.2633 36.0321 48C36.0321 48.7367 35.4354 49.3333 34.6988 49.3333Z" fill="#A82420"/>
<path d="M48.032 44H45.3654C43.1567 44 41.3654 45.7913 41.3654 48C41.3654 50.2087 43.1567 52 45.3654 52H48.032C50.2407 52 52.032 50.2087 52.032 48C52.032 45.7913 50.2407 44 48.032 44ZM48.032 49.3333H45.3654C44.6287 49.3333 44.032 48.7367 44.032 48C44.032 47.2633 44.6287 46.6667 45.3654 46.6667H48.032C48.7687 46.6667 49.3654 47.2633 49.3654 48C49.3654 48.7367 48.7687 49.3333 48.032 49.3333Z" fill="#A82420"/>
<path d="M21.3654 44H18.6987C16.4901 44 14.6987 45.7913 14.6987 48C14.6987 50.2087 16.4901 52 18.6987 52H21.3654C23.5741 52 25.3654 50.2087 25.3654 48C25.3654 45.7913 23.5741 44 21.3654 44ZM21.3654 49.3333H18.6987C17.9621 49.3333 17.3654 48.7367 17.3654 48C17.3654 47.2633 17.9621 46.6667 18.6987 46.6667H21.3654C22.1021 46.6667 22.6987 47.2633 22.6987 48C22.6987 48.7367 22.1021 49.3333 21.3654 49.3333Z" fill="#A82420"/>
<path d="M34.6988 54.6666H32.0321C29.8234 54.6666 28.0321 56.458 28.0321 58.6666C28.0321 60.8753 29.8234 62.6666 32.0321 62.6666H34.6988C36.9074 62.6666 38.6988 60.8753 38.6988 58.6666C38.6988 56.458 36.9074 54.6666 34.6988 54.6666ZM34.6988 60H32.0321C31.2954 60 30.6988 59.4033 30.6988 58.6666C30.6988 57.93 31.2954 57.3333 32.0321 57.3333H34.6988C35.4354 57.3333 36.0321 57.93 36.0321 58.6666C36.0321 59.4033 35.4354 60 34.6988 60Z" fill="#A82420"/>
<path d="M48.032 54.6666H45.3654C43.1567 54.6666 41.3654 56.458 41.3654 58.6666C41.3654 60.8753 43.1567 62.6666 45.3654 62.6666H48.032C50.2407 62.6666 52.032 60.8753 52.032 58.6666C52.032 56.458 50.2407 54.6666 48.032 54.6666ZM48.032 60H45.3654C44.6287 60 44.032 59.4033 44.032 58.6666C44.032 57.93 44.6287 57.3333 45.3654 57.3333H48.032C48.7687 57.3333 49.3654 57.93 49.3654 58.6666C49.3654 59.4033 48.7687 60 48.032 60Z" fill="#A82420"/>
<path d="M21.3654 54.6666H18.6987C16.4901 54.6666 14.6987 56.458 14.6987 58.6666C14.6987 60.8753 16.4901 62.6666 18.6987 62.6666H21.3654C23.5741 62.6666 25.3654 60.8753 25.3654 58.6666C25.3654 56.458 23.5741 54.6666 21.3654 54.6666ZM21.3654 60H18.6987C17.9621 60 17.3654 59.4033 17.3654 58.6666C17.3654 57.93 17.9621 57.3333 18.6987 57.3333H21.3654C22.1021 57.3333 22.6987 57.93 22.6987 58.6666C22.6987 59.4033 22.1021 60 21.3654 60Z" fill="#A82420"/>
<path d="M34.6988 65.3334H32.0321C29.8234 65.3334 28.0321 67.1247 28.0321 69.3334C28.0321 71.542 29.8234 73.3334 32.0321 73.3334H34.6988C36.9074 73.3334 38.6988 71.542 38.6988 69.3334C38.6988 67.1247 36.9074 65.3334 34.6988 65.3334ZM34.6988 70.6667H32.0321C31.2954 70.6667 30.6988 70.07 30.6988 69.3334C30.6988 68.5967 31.2954 68 32.0321 68H34.6988C35.4354 68 36.0321 68.5967 36.0321 69.3334C36.0321 70.07 35.4354 70.6667 34.6988 70.6667Z" fill="#A82420"/>
<path d="M48.032 65.3334H45.3654C43.1567 65.3334 41.3654 67.1247 41.3654 69.3334C41.3654 71.542 43.1567 73.3334 45.3654 73.3334H48.032C50.2407 73.3334 52.032 71.542 52.032 69.3334C52.032 67.1247 50.2407 65.3334 48.032 65.3334ZM48.032 70.6667H45.3654C44.6287 70.6667 44.032 70.07 44.032 69.3334C44.032 68.5967 44.6287 68 45.3654 68H48.032C48.7687 68 49.3654 68.5967 49.3654 69.3334C49.3654 70.07 48.7687 70.6667 48.032 70.6667Z" fill="#A82420"/>
<path d="M21.3654 65.3334H18.6987C16.4901 65.3334 14.6987 67.1247 14.6987 69.3334C14.6987 71.542 16.4901 73.3334 18.6987 73.3334H21.3654C23.5741 73.3334 25.3654 71.542 25.3654 69.3334C25.3654 67.1247 23.5741 65.3334 21.3654 65.3334ZM21.3654 70.6667H18.6987C17.9621 70.6667 17.3654 70.07 17.3654 69.3334C17.3654 68.5967 17.9621 68 18.6987 68H21.3654C22.1021 68 22.6987 68.5967 22.6987 69.3334C22.6987 70.07 22.1021 70.6667 21.3654 70.6667Z" fill="#A82420"/>
<path d="M15.3654 13.5103L14.0321 11.2026C12.7968 11.9193 12.0348 13.2383 12.0321 14.6666V36C12.0321 38.2086 13.8234 40 16.0321 40H50.6987C52.1281 39.9973 53.4484 39.2353 54.1654 38L51.8574 36.6666C51.6188 37.0806 51.1771 37.334 50.6987 37.3333H16.0321C15.2954 37.3333 14.6988 36.7366 14.6988 36V14.6666C14.6994 14.19 14.9538 13.7503 15.3654 13.5103Z" fill="#A82420"/>
<path d="M66.6988 0H24.0321C20.3521 0.00466667 17.3701 2.98667 17.3655 6.66667V28C17.3701 31.68 20.3521 34.662 24.0321 34.6667H66.6988C70.3788 34.662 73.3608 31.68 73.3655 28V6.66667C73.3608 2.98667 70.3788 0.00466667 66.6988 0ZM70.6988 28C70.6988 30.2087 68.9075 32 66.6988 32H24.0321C21.8235 32 20.0321 30.2087 20.0321 28V6.66667C20.0321 4.458 21.8235 2.66667 24.0321 2.66667H66.6988C68.9075 2.66667 70.6988 4.458 70.6988 6.66667V28Z" fill="#A82420"/>
<path d="M30.6987 6.66671C30.6987 5.93004 30.1021 5.33337 29.3654 5.33337H24.0321C23.2954 5.33337 22.6987 5.93004 22.6987 6.66671V12C22.6987 12.7367 23.2954 13.3334 24.0321 13.3334H29.3654C30.1021 13.3334 30.6987 12.7367 30.6987 12V6.66671ZM28.0321 10.6667H25.3654V8.00004H28.0321V10.6667Z" fill="#A82420"/>
<path d="M22.6987 16H28.0321V18.6667H22.6987V16Z" fill="#A82420"/>
<path d="M22.6987 21.3333H28.0321V23.9999H22.6987V21.3333Z" fill="#A82420"/>
<path d="M30.6987 16H36.0321V18.6667H30.6987V16Z" fill="#A82420"/>
<path d="M38.6987 16H44.0321V18.6667H38.6987V16Z" fill="#A82420"/>
<path d="M46.6987 16H52.0321V18.6667H46.6987V16Z" fill="#A82420"/>
<path d="M54.6987 16H60.0321V18.6667H54.6987V16Z" fill="#A82420"/>
<path d="M62.6987 16H68.0321V18.6667H62.6987V16Z" fill="#A82420"/>
<path d="M64.032 6.66675H66.6986V9.33342H64.032V6.66675Z" fill="#A82420"/>
<path d="M58.6987 6.66675H61.3654V9.33342H58.6987V6.66675Z" fill="#A82420"/>
<path d="M53.3654 6.66675H56.032V9.33342H53.3654V6.66675Z" fill="#A82420"/>
<path d="M48.0321 6.66675H50.6988V9.33342H48.0321V6.66675Z" fill="#A82420"/>
<path d="M64.0321 21.3333C63.0451 21.3367 62.0948 21.708 61.3654 22.373C59.7671 20.9207 57.3051 20.9997 55.8024 22.55C54.2988 24.1017 54.2988 26.565 55.8024 28.1167C57.3051 29.667 59.7671 29.746 61.3654 28.2937C62.6894 29.4973 64.6524 29.6747 66.1718 28.7283C67.6904 27.7813 68.3954 25.9407 67.8981 24.2213C67.4008 22.5027 65.8218 21.323 64.0321 21.3333ZM58.6988 26.6667C57.9621 26.6667 57.3654 26.07 57.3654 25.3333C57.3654 24.5967 57.9621 24 58.6988 24C59.4354 24 60.0321 24.5967 60.0321 25.3333C60.0321 26.07 59.4354 26.6667 58.6988 26.6667ZM64.0321 26.6667C63.2954 26.6667 62.6988 26.07 62.6988 25.3333C62.6988 24.5967 63.2954 24 64.0321 24C64.7688 24 65.3654 24.5967 65.3654 25.3333C65.3654 26.07 64.7688 26.6667 64.0321 26.6667Z" fill="#A82420"/>
</g>
<defs>
<clipPath id="clip0">
<rect width="80" height="80" fill="white"/>
</clipPath>
</defs>
</svg>
