<svg width="80" height="80" viewBox="0 0 80 80" fill="none" xmlns="http://www.w3.org/2000/svg">
<g clip-path="url(#clip0)">
<path d="M7.1723 7.98363C9.345 8.34575 11.0478 10.0492 11.4093 12.2216C11.518 12.8638 12.0736 13.3334 12.7245 13.3334C13.3751 13.3334 13.9307 12.8638 14.0395 12.2216C14.4009 10.0492 16.1037 8.34575 18.2764 7.98363C18.918 7.87453 19.3872 7.3193 19.3872 6.66837C19.3872 6.01776 18.918 5.46254 18.2764 5.35411C16.1037 4.99099 14.4009 3.28817 14.0395 1.11514C13.9307 0.473239 13.3751 0.00402832 12.7245 0.00402832C12.0736 0.00402832 11.518 0.473239 11.4093 1.11514C11.0478 3.28817 9.345 4.99099 7.1723 5.35411C6.5304 5.46254 6.06152 6.01776 6.06152 6.66837C6.06152 7.3193 6.5304 7.87453 7.1723 7.98363ZM12.7245 4.76475C13.2443 5.50437 13.8889 6.14895 14.6285 6.66837C13.8889 7.18811 13.2443 7.83236 12.7245 8.57265C12.2044 7.83236 11.5599 7.18811 10.8202 6.66837C11.5599 6.14895 12.2044 5.50437 12.7245 4.76475Z" fill="#A82420"/>
<path d="M23.3918 74.6672H53.6576C54.1 75.7776 54.6823 76.8265 55.3915 77.789V79.9998H58.0582V77.3342C58.0582 77.0313 57.9551 76.7374 57.7657 76.5005C54.8718 72.9105 54.4819 67.9118 56.7844 63.9161L57.8815 61.9954C58.1777 61.4744 58.09 60.8197 57.667 60.3954L46.3333 49.062C45.0491 47.7357 45.0652 45.6239 46.3707 44.318C47.6773 43.0118 49.7894 42.9961 51.1154 44.2802L65.1154 58.2802L67.0003 56.3954L62.0579 51.4479V38.2166L68.422 45.4911C70.3363 47.6788 71.3912 50.4857 71.3916 53.392V79.9998H74.0582V53.392C74.0582 49.8398 72.7694 46.4077 70.43 43.734L62.0579 34.1654V1.33334C62.0579 0.597056 61.4608 0 60.7245 0H23.3918C22.6542 0 22.0581 0.597056 22.0581 1.33334V73.3338C22.0581 74.0701 22.6542 74.6672 23.3918 74.6672ZM24.7244 72.0005V8.00035H48.7245V10.6664H34.0581C33.3212 10.6664 32.7245 11.2634 32.7245 12C32.7245 14.2095 30.9336 16 28.7245 16C27.9875 16 27.3915 16.5971 27.3915 17.3334V62.6668C27.3915 63.4031 27.9875 64.0005 28.7245 64.0005C30.9336 64.0005 32.7245 65.7913 32.7245 68.0005C32.7245 68.7364 33.3212 69.3335 34.0581 69.3335H50.0582C50.7945 69.3335 51.3915 68.7364 51.3915 68.0005C51.3959 66.5015 52.2409 65.1323 53.5776 64.4553C52.6415 66.8552 52.3972 69.4694 52.8728 72.0005H24.7244ZM50.0582 18.667H54.0582V33.1232C50.9819 29.7668 46.6094 27.8997 42.0578 27.9997C37.5066 27.8997 33.1334 29.7668 30.0578 33.1232V18.5335C32.6743 17.9954 34.7191 15.9502 35.2579 13.3334H48.7245V17.3334C48.7245 18.07 49.3212 18.667 50.0582 18.667ZM51.3915 16V9.88523L57.506 16H51.3915ZM45.1971 51.6909L54.8845 61.3796C51.921 61.6022 49.4638 63.7592 48.8577 66.6668H35.2579C34.7191 64.05 32.6743 62.0055 30.0578 61.467V46.8783C33.1334 50.2344 37.5066 52.1005 42.0578 52.0001C43.1107 51.9901 44.1616 51.887 45.1971 51.6909ZM44.4487 42.391C42.6465 44.2039 42.1816 46.9556 43.2884 49.2595C42.8791 49.2929 42.4705 49.3334 42.0578 49.3334C35.4397 49.3334 30.0578 45.1474 30.0578 40.0001C30.0578 34.8538 35.4397 30.6664 42.0578 30.6664C48.6753 30.6664 54.0582 34.8538 54.0582 40.0001C54.0475 40.9797 53.8433 41.9475 53.4578 42.8488L53.0006 42.391C50.6372 40.0319 46.8115 40.0319 44.4487 42.391ZM56.7252 46.1149V18.667H59.3912V48.7812L56.7252 46.1149ZM59.3912 2.66667V14.1145L51.0003 5.72357C50.8872 5.6128 50.756 5.52177 50.6111 5.45784C50.5682 5.4391 50.5267 5.42839 50.4779 5.41233C50.3684 5.37585 50.2553 5.35342 50.1405 5.34539C50.1154 5.34941 50.0886 5.33368 50.0582 5.33368H24.7244V2.66667H59.3912Z" fill="#A82420"/>
<path d="M42.0578 17.3334C39.8483 17.3334 38.0581 19.1245 38.0581 21.3337C38.0581 23.5432 39.8483 25.3337 42.0578 25.3337C44.2666 25.3337 46.0578 23.5432 46.0578 21.3337C46.0578 19.1245 44.2666 17.3334 42.0578 17.3334ZM42.0578 22.6671C41.3208 22.6671 40.7248 22.07 40.7248 21.3337C40.7248 20.5971 41.3208 20 42.0578 20C42.7941 20 43.3908 20.5971 43.3908 21.3337C43.3908 22.07 42.7941 22.6671 42.0578 22.6671Z" fill="#A82420"/>
<path d="M38.0581 58.6672C38.0581 60.8767 39.8483 62.6669 42.0578 62.6669C44.2666 62.6669 46.0578 60.8767 46.0578 58.6672C46.0578 56.4581 44.2666 54.6672 42.0578 54.6672C39.8483 54.6672 38.0581 56.4581 38.0581 58.6672ZM43.3908 58.6672C43.3908 59.4035 42.7941 60.0006 42.0578 60.0006C41.3208 60.0006 40.7248 59.4035 40.7248 58.6672C40.7248 57.931 41.3208 57.3339 42.0578 57.3339C42.7941 57.3339 43.3908 57.931 43.3908 58.6672Z" fill="#A82420"/>
</g>
<defs>
<clipPath id="clip0">
<rect width="80" height="80" fill="white"/>
</clipPath>
</defs>
</svg>
