<svg width="80" height="80" viewBox="0 0 80 80" fill="none" xmlns="http://www.w3.org/2000/svg">
<path d="M66.6667 14.1253V6.66667C66.662 2.98667 63.68 0.00466667 60 0H6.66667C2.98667 0.00466667 0.00466667 2.98667 0 6.66667V36C0.0103334 39.405 2.59133 42.2527 5.97867 42.598L10.9907 55.6083C12.3147 59.0437 16.1727 60.755 19.6083 59.4327L50.9067 47.376C48.744 53.025 49.3593 59.362 52.5673 64.4897L53.3333 65.7147V78.6667C53.3333 79.4033 53.93 80 54.6667 80H78.6667C79.4033 80 80 79.4033 80 78.6667V34.655C79.9873 30.044 78.1517 25.626 74.8917 22.365L66.6667 14.1253ZM66.6667 22.0993L70.7133 32.604C71.5063 34.666 70.4787 36.9797 68.417 37.7733L66.104 38.6667C66.4733 37.826 66.6647 36.9173 66.6667 36V22.0993ZM2.66667 36V6.66667C2.66667 4.458 4.458 2.66667 6.66667 2.66667H60C62.2087 2.66667 64 4.458 64 6.66667V15.1413H63.9883L64 15.1717V36C63.9897 36.2327 63.9593 36.4633 63.9093 36.6907L51.696 24.476C48.9507 21.794 44.574 21.7733 41.804 24.4273C39.0333 27.083 38.867 31.4563 41.4293 34.313L46.636 40H6.66667C4.458 40 2.66667 38.2087 2.66667 36ZM19.748 42.6667L10.2667 46.317L8.864 42.6667H19.748ZM18.6493 56.9437C16.588 57.7383 14.273 56.7107 13.4787 54.6493L11.2293 48.8L27.1453 42.6667V42.6587H49.08L50.813 44.548L18.6493 56.9437ZM77.3333 77.3333H56V66.6667H77.3333V77.3333ZM77.3333 64H55.4067L54.8283 63.076C51.5773 57.8807 51.448 51.3187 54.4907 46C54.7787 45.4967 54.708 44.8647 54.316 44.4373L43.3897 32.5173C41.7603 30.734 41.852 27.977 43.5963 26.3067C45.3413 24.636 48.0997 24.6633 49.8103 26.3673L71.0573 47.6093L72.9427 45.724L68.0093 40.7907L69.3773 40.2573C72.81 38.933 74.5207 35.0783 73.2 31.6437L68.687 19.925L73.0063 24.2533C75.7663 27.0127 77.3227 30.752 77.3333 34.655V64Z" fill="#A82420"/>
<path d="M15.1999 18.6667C17.1146 18.6667 18.6666 17.1147 18.6666 15.2V8.80004C18.6666 6.88537 17.1146 5.33337 15.1999 5.33337H8.79992C6.88525 5.33337 5.33325 6.88537 5.33325 8.80004V15.2C5.33325 17.1147 6.88525 18.6667 8.79992 18.6667H15.1999ZM7.99992 15.2V13.3334H10.6666V10.6667H7.99992V8.80004C7.99992 8.35838 8.35825 8.00004 8.79992 8.00004H15.1999C15.6416 8.00004 15.9999 8.35838 15.9999 8.80004V10.6667H13.3333V13.3334H15.9999V15.2C15.9999 15.6417 15.6416 16 15.1999 16H8.79992C8.35825 16 7.99992 15.6417 7.99992 15.2Z" fill="#A82420"/>
<path d="M6.66675 22.6666H12.0001V25.3333H6.66675V22.6666Z" fill="#A82420"/>
<path d="M6.66675 30.6666H12.0001V33.3333H6.66675V30.6666Z" fill="#A82420"/>
<path d="M30.6667 30.6666H36.0001V33.3333H30.6667V30.6666Z" fill="#A82420"/>
<path d="M14.6667 22.6666H20.0001V25.3333H14.6667V22.6666Z" fill="#A82420"/>
<path d="M22.6667 22.6666H28.0001V25.3333H22.6667V22.6666Z" fill="#A82420"/>
<path d="M30.6667 22.6666H36.0001V25.3333H30.6667V22.6666Z" fill="#A82420"/>
<path d="M56 6.66675H58.6667V10.6667H56V6.66675Z" fill="#A82420"/>
<path d="M50.6667 6.66675H53.3334V10.6667H50.6667V6.66675Z" fill="#A82420"/>
<path d="M45.3333 6.66675H47.9999V10.6667H45.3333V6.66675Z" fill="#A82420"/>
<path d="M40 6.66675H42.6667V10.6667H40V6.66675Z" fill="#A82420"/>
<path d="M58.6667 69.3334H61.3334V72H58.6667V69.3334Z" fill="#A82420"/>
</svg>
