<svg width="53" height="29" viewBox="0 0 53 29" fill="none" xmlns="http://www.w3.org/2000/svg">
<path d="M50.3501 17.8389H44.5511C44.5546 17.7832 44.5828 17.7364 44.5828 17.6807V11.9727C44.5828 10.4839 43.3965 9.27729 41.9328 9.27729H36.1338C36.1373 9.22159 36.1656 9.17484 36.1656 9.1183V3.41028C36.1656 1.92147 34.9793 0.714844 33.5156 0.714844H19.4855C18.0218 0.714844 16.8355 1.92147 16.8355 3.41028V9.1183C16.8355 9.17495 16.8637 9.22159 16.8673 9.27729H11.0682C9.60449 9.27729 8.4182 10.4839 8.4182 11.9727V17.6807C8.4182 17.7374 8.44646 17.784 8.44998 17.8389H2.65C1.18629 17.8389 0 19.0455 0 20.5343V26.2423C0 27.7312 1.18629 28.9378 2.65 28.9378H50.35C51.8137 28.9378 53 27.7312 53 26.2423V20.5343C53.0001 19.0456 51.8137 17.8389 50.3501 17.8389ZM41.9327 11.9727V17.6807H27.9027V11.9727H41.9327ZM19.4855 3.41028H33.5145V9.1183H19.4855V3.41028ZM11.0682 11.9727H25.0973V17.6807H11.0682V11.9727ZM16.6792 26.2425H2.65V20.5344H16.6791V26.2425H16.6792ZM33.5146 26.2425H19.4855V20.5344H33.5145V26.2425H33.5146ZM50.3501 26.2425H36.3209V20.5344H50.35V26.2425H50.3501Z" fill="#A82420"/>
</svg>
