<svg width="19" height="19" viewBox="0 0 19 19" fill="none" xmlns="http://www.w3.org/2000/svg">
<g clip-path="url(#clip0)">
<path d="M18.8307 13.749C18.7796 13.6635 18.4637 12.9771 16.9436 11.5662C15.3522 10.0889 15.566 10.3288 17.4827 7.77428C18.6501 6.21854 19.1169 5.26847 18.9708 4.86231C18.8318 4.47516 17.9732 4.57729 17.9732 4.57729L15.1183 4.59392C15.1183 4.59392 14.9069 4.56541 14.7489 4.65923C14.5957 4.75187 14.4971 4.96563 14.4971 4.96563C14.4971 4.96563 14.0447 6.16985 13.4414 7.19355C12.1695 9.35377 11.66 9.46778 11.4522 9.33358C10.9688 9.02125 11.09 8.07711 11.09 7.40731C11.09 5.31359 11.407 4.44072 10.4712 4.21508C10.1601 4.14026 9.93206 4.09038 9.13756 4.08207C8.11861 4.07138 7.25524 4.08563 6.76714 4.32433C6.44174 4.48347 6.19116 4.83856 6.34436 4.85875C6.53318 4.88369 6.96072 4.97394 7.18755 5.28272C7.48088 5.68056 7.47019 6.576 7.47019 6.576C7.47019 6.576 7.63883 9.04025 7.0771 9.34664C6.69113 9.55685 6.16266 9.12813 5.02851 7.16742C4.44778 6.16391 4.00837 5.05351 4.00837 5.05351C4.00837 5.05351 3.92405 4.84687 3.77323 4.73643C3.59034 4.60223 3.33382 4.55948 3.33382 4.55948L0.618998 4.5761C0.618998 4.5761 0.211656 4.58798 0.0620197 4.76493C-0.0709901 4.92288 0.0513314 5.24828 0.0513314 5.24828C0.0513314 5.24828 2.17711 10.2207 4.58317 12.7277C6.79089 15.0257 9.2967 14.8749 9.2967 14.8749H10.432C10.432 14.8749 10.7752 14.8369 10.9498 14.648C11.1113 14.4747 11.1054 14.1493 11.1054 14.1493C11.1054 14.1493 11.0828 12.6256 11.7906 12.4011C12.4877 12.1802 13.3832 13.8737 14.3321 14.5257C15.0494 15.0186 15.5945 14.9105 15.5945 14.9105L18.1324 14.8749C18.1324 14.8749 19.4601 14.7929 18.8307 13.749Z" fill="#D74F4B"/>
</g>
<defs>
<clipPath id="clip0">
<rect width="19" height="19" fill="white"/>
</clipPath>
</defs>
</svg>
